<svg width="442" height="202" fill="none" xmlns="http://www.w3.org/2000/svg"><path fill-rule="evenodd" clip-rule="evenodd" d="M0 148.95h47.057V88.36h57.141V58.065H47.057V31.978h65.544v76.579h45.376V8.415l54.612 140.535h51.258L315.954 8.415l-.008 140.535H442v-31.978h-78.989V88.36h70.578V58.065h-70.586V31.978H442L441.992 0H271.41l-32.764 106.874L205.026 0H0v148.95z" fill="#076BB4"/><path d="M157.977 116.972h-45.376v31.978h45.376v-31.978zM20.663 190.353a6.529 6.529 0 0 1 1.412 4.334 6.122 6.122 0 0 1-2.521 5.251c-1.68 1.22-4.151 1.835-7.42 1.835H0v-26.508h11.395c2.949 0 5.226.589 6.856 1.775a5.897 5.897 0 0 1 2.429 5.049 6.273 6.273 0 0 1-1.076 3.728 6.419 6.419 0 0 1-2.958 2.289 7.028 7.028 0 0 1 4.017 2.247zM2.79 177.562v9.619h8.403a8.448 8.448 0 0 0 4.958-1.204 4.544 4.544 0 0 0 1.28-5.565 4.539 4.539 0 0 0-1.28-1.588 8.44 8.44 0 0 0-4.941-1.262H2.79zm14.68 20.676a4.215 4.215 0 0 0 1.815-3.787c0-3.298-2.39-4.951-7.168-4.956H2.79v9.947h9.327c2.361 0 4.151-.387 5.353-1.195v-.009zM31.091 199.046c-1.916-1.969-2.873-4.836-2.873-8.6v-15.148h2.798v15.072c0 3.08.692 5.377 2.075 6.892 1.384 1.515 3.384 2.272 6 2.272 2.639 0 4.655-.757 6.033-2.272 1.378-1.515 2.076-3.812 2.076-6.892v-15.105h2.723v15.147c0 3.77-.95 6.637-2.849 8.601-1.9 1.963-4.557 2.948-7.974 2.953-3.423 0-6.093-.973-8.009-2.92zM58.342 175.265h2.799v26.508h-2.799v-26.508zM69.745 175.265h2.79v24.084h14.798v2.424H69.745v-26.508zM91.971 175.265h10.756a15.71 15.71 0 0 1 7.395 1.683 12.32 12.32 0 0 1 4.983 4.696 14.212 14.212 0 0 1 0 13.75 12.32 12.32 0 0 1-4.983 4.696 15.723 15.723 0 0 1-7.395 1.683H91.971v-26.508zm10.605 24.084a12.834 12.834 0 0 0 6.075-1.38 9.949 9.949 0 0 0 4.034-3.829 11.708 11.708 0 0 0 0-11.243 9.946 9.946 0 0 0-4.034-3.828 12.847 12.847 0 0 0-6.075-1.381h-7.815v21.661h7.815zM123.138 175.265h2.798v26.508h-2.798v-26.508zM156.616 175.265v26.508h-2.303l-16.982-21.51v21.51h-2.79v-26.508h2.302l17.017 21.509v-21.509h2.756zM183.825 188.502h2.722V198.6a12.743 12.743 0 0 1-4.377 2.525 16.036 16.036 0 0 1-5.32.841 14.555 14.555 0 0 1-7.134-1.742 12.863 12.863 0 0 1-4.983-4.83 14.115 14.115 0 0 1 0-13.818 12.863 12.863 0 0 1 4.983-4.83 14.64 14.64 0 0 1 7.168-1.742 15.347 15.347 0 0 1 5.554.968 11.006 11.006 0 0 1 4.261 2.852l-1.74 1.784a10.823 10.823 0 0 0-7.957-3.105 11.753 11.753 0 0 0-5.798 1.422 10.317 10.317 0 0 0-4.051 3.939 11.39 11.39 0 0 0 0 11.226 10.615 10.615 0 0 0 4.034 3.938 11.609 11.609 0 0 0 5.773 1.439 11.455 11.455 0 0 0 6.907-2.045l-.042-8.92zM209.412 177.688h-9.285v-2.423h21.36v2.423h-9.243v24.085h-2.798l-.034-24.085zM248.024 175.265v26.508h-2.756v-12.236h-16.529v12.236h-2.798v-26.508h2.798v11.781h16.529v-11.781h2.756zM275.309 199.349v2.424h-18.68v-26.508h18.15v2.423h-15.36v9.425h13.68v2.39h-13.68v9.846h15.89zM294.552 177.688v10.41h13.663v2.424h-13.663v11.251h-2.79v-26.508h18.117v2.423h-15.327zM318.29 199.046c-1.904-1.969-2.859-4.836-2.865-8.6v-15.148h2.79v15.072c0 3.08.692 5.377 2.075 6.892 1.384 1.515 3.384 2.272 6 2.272 2.647 0 4.655-.757 6.042-2.272 1.386-1.515 2.075-3.812 2.075-6.892v-15.105h2.715v15.147c0 3.77-.95 6.637-2.849 8.601-1.899 1.963-4.56 2.948-7.983 2.953-3.417 0-6.084-.973-8-2.92zM350.146 177.688h-9.285v-2.423h21.36v2.423h-9.293v24.085h-2.79l.008-24.085zM368.784 199.046c-1.904-1.969-2.86-4.836-2.865-8.6v-15.148h2.79v15.072c0 3.08.697 5.377 2.075 6.892 1.378 1.515 3.361 2.272 6 2.272s4.655-.757 6.042-2.272c1.386-1.515 2.075-3.812 2.075-6.892v-15.105h2.715v15.147c0 3.77-.95 6.637-2.849 8.601-1.899 1.963-4.56 2.948-7.983 2.953-3.417 0-6.084-.973-8-2.92zM414.077 201.773l-6.042-8.525c-.703.078-1.41.118-2.118.118h-7.092v8.415h-2.79v-26.508h9.882c3.362 0 6.006.808 7.933 2.424a8.256 8.256 0 0 1 2.865 6.664 8.222 8.222 0 0 1-1.555 5.232 8.204 8.204 0 0 1-4.487 3.1l6.454 9.088-3.05-.008zm-2.227-12.531a6.832 6.832 0 0 0 1.535-2.246 6.868 6.868 0 0 0 0-5.336 6.846 6.846 0 0 0-1.535-2.247c-1.384-1.15-3.384-1.711-6-1.683h-7.025v13.288h7.042c2.605-.028 4.599-.62 5.983-1.776zM442 199.349v2.424h-18.68v-26.508h18.117v2.423H426.11v9.425h13.663v2.39H426.11v9.846H442z" fill="#076BB4"/></svg>